<?xml version="1.0" encoding="utf-8"?>
<!-- Generator: Adobe Illustrator 25.2.3, SVG Export Plug-In . SVG Version: 6.00 Build 0)  -->
<svg version="1.1" id="Layer_1" xmlns="http://www.w3.org/2000/svg" xmlns:xlink="http://www.w3.org/1999/xlink" x="0px" y="0px"
	 viewBox="0 0 500 500" style="enable-background:new 0 0 500 500;" xml:space="preserve">
<style type="text/css">
	.st0{fill:url(#SVGID_1_);}
	.st1{fill:url(#SVGID_2_);}
	.st2{fill:url(#SVGID_3_);}
	.st3{fill:url(#SVGID_4_);}
	.st4{fill:url(#SVGID_5_);}
	.st5{fill:url(#SVGID_6_);}
	.st6{fill:url(#SVGID_7_);}
	.st7{fill:url(#SVGID_8_);}
	.st8{fill:#96C236;}
	.st9{fill:url(#SVGID_9_);}
	.st10{fill:url(#SVGID_10_);}
	.st11{fill:url(#SVGID_11_);}
	.st12{fill:url(#SVGID_12_);}
	.st13{fill:url(#SVGID_13_);}
	.st14{fill:url(#SVGID_14_);}
	.st15{fill:url(#SVGID_15_);}
	.st16{fill:url(#SVGID_16_);}
	.st17{fill:url(#SVGID_17_);}
</style>
<linearGradient id="SVGID_1_" gradientUnits="userSpaceOnUse" x1="102.5268" y1="294.1838" x2="102.5268" y2="242.3928">
	<stop  offset="0" style="stop-color:#017F3E"/>
	<stop  offset="0.5031" style="stop-color:#5CB24B"/>
	<stop  offset="1" style="stop-color:#A2C73F"/>
</linearGradient>
<path class="st0" d="M113.52,287.24l-11.01-46.17l-11.23,46.19c-0.65,2.69-3.06,4.58-5.83,4.58h-6.02c-2.68,0-5.04-1.78-5.77-4.37
	l-18.28-64.55c-1.3-4.58,2.14-9.12,6.9-9.12h2.33c3.28,0,6.14,2.23,6.95,5.41L83,264.35l9.6-44.87c0.71-3.31,3.63-5.67,7.01-5.67
	h5.68c3.33,0,6.22,2.29,6.98,5.53l10.57,45.01l11.33-45.12c0.8-3.19,3.67-5.42,6.95-5.42h1.64c4.75,0,8.18,4.53,6.9,9.1
	l-18.08,64.56c-0.73,2.59-3.09,4.38-5.78,4.38h-6.46C116.58,291.85,114.16,289.94,113.52,287.24z"/>
<linearGradient id="SVGID_2_" gradientUnits="userSpaceOnUse" x1="164.0994" y1="289.614" x2="164.0994" y2="248.7902">
	<stop  offset="0" style="stop-color:#017F3E"/>
	<stop  offset="0.5031" style="stop-color:#5CB24B"/>
	<stop  offset="1" style="stop-color:#A2C73F"/>
</linearGradient>
<path class="st1" d="M156.46,227.09v-7.05c0-3.96,3.21-7.17,7.17-7.17h0.94c3.96,0,7.17,3.21,7.17,7.17v7.05H156.46z M156.46,285.85
	v-44.66c0-3.96,3.21-7.17,7.17-7.17h0.94c3.96,0,7.17,3.21,7.17,7.17v44.66c0,3.31-2.69,6-6,6h-3.28
	C159.15,291.85,156.46,289.16,156.46,285.85z"/>
<linearGradient id="SVGID_3_" gradientUnits="userSpaceOnUse" x1="204.8816" y1="292.6606" x2="204.8816" y2="245.4147">
	<stop  offset="0" style="stop-color:#017F3E"/>
	<stop  offset="0.5031" style="stop-color:#5CB24B"/>
	<stop  offset="1" style="stop-color:#A2C73F"/>
</linearGradient>
<path class="st2" d="M221.7,291.85c-3.31,0-6-2.69-6-6v-29.02c0-4.47-0.75-7.48-2.23-9.05c-1.49-1.57-4.04-2.35-7.64-2.35
	c-7.91,0-11.87,4.43-11.87,13.28v27.14c0,3.31-2.69,6-6,6h-3.28c-3.31,0-6-2.69-6-6v-44.66c0-3.96,3.21-7.17,7.17-7.17h0.24
	c3.96,0,7.17,3.21,7.17,7.17v1.29c1.8-3.29,4.19-5.78,7.17-7.46c2.98-1.68,6.82-2.53,11.52-2.53c2.74,0,5.29,0.41,7.64,1.23
	c2.35,0.82,4.37,2.06,6.05,3.7c1.68,1.65,3.02,3.66,4,6.05c0.98,2.39,1.47,5.15,1.47,8.29v34.08c0,3.31-2.69,6-6,6H221.7z"/>
<g>
	<g>
		<linearGradient id="SVGID_4_" gradientUnits="userSpaceOnUse" x1="250.987" y1="274.1619" x2="250.987" y2="220.7318">
			<stop  offset="0" style="stop-color:#EE741C"/>
			<stop  offset="1" style="stop-color:#FCC00D"/>
		</linearGradient>
		<path class="st3" d="M250.99,297.36c-7.37,0-13.37-6-13.37-13.37c0-7.37,6-13.37,13.37-13.37c7.37,0,13.37,6,13.37,13.37
			C264.36,291.36,258.36,297.36,250.99,297.36z M250.99,279.1c-2.7,0-4.89,2.19-4.89,4.89c0,2.7,2.19,4.89,4.89,4.89
			c2.69,0,4.89-2.19,4.89-4.89C255.87,281.29,253.68,279.1,250.99,279.1z"/>
	</g>
	<g>
		<linearGradient id="SVGID_5_" gradientUnits="userSpaceOnUse" x1="308.9719" y1="274.1619" x2="308.9719" y2="220.7318">
			<stop  offset="0" style="stop-color:#EE741C"/>
			<stop  offset="1" style="stop-color:#FCC00D"/>
		</linearGradient>
		<path class="st4" d="M308.97,297.36c-7.37,0-13.37-6-13.37-13.37c0-7.37,6-13.37,13.37-13.37c7.37,0,13.37,6,13.37,13.37
			C322.34,291.36,316.34,297.36,308.97,297.36z M308.97,279.1c-2.7,0-4.89,2.19-4.89,4.89c0,2.7,2.19,4.89,4.89,4.89
			c2.69,0,4.89-2.19,4.89-4.89C313.86,281.29,311.67,279.1,308.97,279.1z"/>
	</g>
</g>
<g>
	<linearGradient id="SVGID_6_" gradientUnits="userSpaceOnUse" x1="279.7523" y1="274.0634" x2="279.7523" y2="220.6333">
		<stop  offset="0" style="stop-color:#EE741C"/>
		<stop  offset="1" style="stop-color:#FCC00D"/>
	</linearGradient>
	<path class="st5" d="M347.13,202.86c-5.34-0.23-10.68-0.44-16.02-0.58c-5.41-0.16-10.83-0.19-16.25-0.26l-8.14,0.02l-8.14,0.14
		c-5.43,0.15-10.87,0.33-16.32,0.76c5.35,1.14,10.72,2.02,16.08,2.88l8.06,1.2l8.07,1.08c5.38,0.64,10.76,1.31,16.15,1.86
		c3.58,0.38,7.16,0.71,10.74,1.04c-0.93,2.71-2.01,5.37-3.22,7.96c-11.42,0.1-22.84,0.4-34.27,0.94
		c-14.48,0.73-28.96,1.74-43.43,3.71c14.48,1.96,28.96,2.98,43.43,3.71c9.71,0.46,19.43,0.75,29.14,0.89
		c-0.4,0.63-0.8,1.26-1.22,1.87c-2.81,4-6,7.71-9.48,11.1c-6.6,0.16-13.19,0.41-19.78,0.78c-12.24,0.73-24.48,1.74-36.72,3.71
		c12.24,1.96,24.48,2.98,36.72,3.71c3.08,0.17,6.16,0.3,9.24,0.43c-6.68,4.42-14.01,7.76-21.67,9.78l-3.15,0.68
		c-1.05,0.23-2.1,0.48-3.1,0.58c-2.02,0.32-4.03,0.45-6,0.47c-3.94-0.01-7.69-0.76-10.93-2.29c-3.24-1.52-5.97-3.81-8.05-6.73
		c-2.08-2.91-3.53-6.43-4.38-10.25l-0.33-1.43l-0.2-1.49c-0.13-1-0.29-1.91-0.39-3.14l-0.66-6.93l-1.35-13.85
		c-0.2-2.32-0.55-4.58-0.62-6.97c-0.19-2.61-0.54-5.29-1.1-7.93c-1.13-5.29-3.03-10.61-6.39-15.56c-1.67-2.46-3.79-4.8-6.37-6.79
		c-5.85-4.5-11.88-5.35-17.88-4.31c-8.96,1.56-13.76,11.45-9.49,19.49l0,0l6.54-3.47c3.12-1.65,6.02-2.14,8.37-1.57
		c2.36,0.52,4.74,2.26,6.7,5.06c1.95,2.79,3.38,6.4,4.23,10.24c0.43,1.93,0.71,3.9,0.88,5.95c0.09,2.29,0.46,4.67,0.69,7.01
		l1.63,14.07l0.82,7.03c0.11,1.1,0.34,2.51,0.55,3.82l0.32,1.99l0.49,1.99c1.28,5.27,3.52,10.56,7.05,15.16
		c3.48,4.6,8.27,8.37,13.59,10.64c5.31,2.3,11,3.15,16.41,3.01c2.7-0.1,5.38-0.35,7.96-0.87c1.33-0.2,2.54-0.53,3.77-0.85l3.68-0.95
		c9.7-2.95,18.78-7.67,26.75-13.75c7.91-6.16,14.66-13.71,19.98-22.09c5.23-8.45,9.02-17.73,11.17-27.36l0.04-0.19
		c0.08-0.35,0.11-0.72,0.09-1.1C351.3,204.67,349.36,202.95,347.13,202.86z"/>
</g>
<linearGradient id="SVGID_7_" gradientUnits="userSpaceOnUse" x1="197.1248" y1="312.978" x2="343.3157" y2="312.978">
	<stop  offset="0" style="stop-color:#4F81C2"/>
	<stop  offset="1" style="stop-color:#213B7B"/>
</linearGradient>
<path class="st6" d="M202.73,307.57c0,0,66.22-17.43,140.59-1.99c0,0-72.84-7.94-146.19,21.18
	C197.12,326.76,198.65,313.74,202.73,307.57z"/>
<linearGradient id="SVGID_8_" gradientUnits="userSpaceOnUse" x1="410.6032" y1="270.1443" x2="410.6032" y2="229.911">
	<stop  offset="0" style="stop-color:#EE741C"/>
	<stop  offset="1" style="stop-color:#FCC00D"/>
</linearGradient>
<path class="st7" d="M435.37,231.85c-1.25-3.42-3.03-6.31-5.33-8.7c-2.31-2.38-5.11-4.23-8.38-5.55c-3.27-1.32-6.97-1.97-11.09-1.97
	c-4.2,0-7.95,0.65-11.25,1.97c-0.47,0.19-0.92,0.37-1.36,0.59c-2.74,1.26-5.12,2.94-7.13,5.01c-2.35,2.42-4.15,5.33-5.39,8.75
	c-0.37,1-0.68,2.04-0.93,3.1v0.01c0.43,2,0.64,4.31,0.64,6.92c0,2.62-0.39,4.92-1.16,6.89v0.01c0.31,1.96,0.77,3.8,1.4,5.57
	c1.21,3.42,2.97,6.33,5.28,8.75c2.18,2.29,4.82,4.1,7.9,5.41c0.19,0.08,0.39,0.16,0.57,0.24c3.35,1.36,7.16,2.04,11.43,2.04
	c4.06,0,7.73-0.67,11.04-1.98c3.31-1.32,6.12-3.18,8.43-5.6c2.3-2.42,4.08-5.31,5.33-8.7c1.24-3.37,1.86-7.16,1.86-11.36
	C437.23,239.07,436.6,235.27,435.37,231.85z M410.56,259.26c-6.45,0-10.44-3.09-11.97-9.27c-0.49-1.93-0.73-4.18-0.73-6.73
	c0-2.53,0.24-4.75,0.73-6.68c1.53-6.15,5.52-9.22,11.97-9.22c8.46,0,12.69,5.31,12.69,15.9
	C423.25,253.93,419.02,259.26,410.56,259.26z"/>
<g>
	<path class="st8" d="M397.95,218.19c-1.04-2.21-3.27-3.72-5.87-3.72h-0.85c-1.81,0-3.43,0.73-4.62,1.9c-1.17,1.18-1.9,2.81-1.9,4.6
		c-3.27-5.27-8.18-7.89-14.73-7.89c-3.19,0-6.19,0.65-8.95,1.97c-2.78,1.32-5.2,3.17-7.26,5.55c-2.06,2.38-3.7,5.27-4.91,8.65
		c-1.21,3.38-1.81,7.09-1.81,11.15c0,3.42,0.41,6.76,1.22,10.03c0.82,3.27,2.14,6.15,3.95,8.65c1.81,2.49,4.19,4.5,7.14,6.03
		c2.95,1.53,6.6,2.29,10.93,2.29c3.42,0,6.43-0.65,9.02-1.97c2.59-1.32,4.39-3.15,5.39-5.49v8.63c0,3.49-1.28,6.25-3.83,8.27
		c-2.57,2.02-5.69,3.05-9.39,3.05c-3.49,0-6.28-0.88-8.38-2.62c-1.17-0.97-2.01-2.15-2.53-3.58c-0.81-2.25-2.81-3.83-5.2-3.83h-2.04
		c-3.76,0-6.37,3.71-5.15,7.26c0.23,0.65,0.48,1.29,0.77,1.9c1.29,2.71,3.05,5,5.28,6.89c2.25,1.88,4.94,3.34,8.06,4.38
		c3.13,1.02,6.5,1.54,10.14,1.54c3.63,0,7.04-0.53,10.24-1.6c3.21-1.08,5.97-2.62,8.33-4.64c2.34-2.04,4.19-4.56,5.55-7.58
		c1.21-2.73,1.89-5.84,2-9.36c0.03-0.37,0.03-0.76,0.03-1.14v-46.52C398.58,219.97,398.36,219.02,397.95,218.19z M381.78,252.6
		c-2.25,2.61-5.07,3.9-8.49,3.9s-6.24-1.38-8.49-4.16c-2.23-2.77-3.35-6.5-3.35-11.2c0-10.67,3.95-16,11.84-16
		c6.07,0,9.79,3.31,11.2,9.92v0.01c0.43,2,0.64,4.31,0.64,6.92c0,2.62-0.39,4.92-1.16,6.89v0.01
		C383.45,250.28,382.71,251.52,381.78,252.6z"/>
</g>
<linearGradient id="SVGID_9_" gradientUnits="userSpaceOnUse" x1="375.9685" y1="289.0826" x2="373.257" y2="248.41">
	<stop  offset="0" style="stop-color:#017F3E"/>
	<stop  offset="0.5031" style="stop-color:#5CB24B"/>
	<stop  offset="1" style="stop-color:#A2C73F"/>
</linearGradient>
<path class="st9" d="M397.95,218.19c-1.04-2.21-3.27-3.72-5.87-3.72h-0.85c-1.81,0-3.43,0.73-4.62,1.9c-1.17,1.18-1.9,2.81-1.9,4.6
	c-3.27-5.27-8.18-7.89-14.73-7.89c-3.19,0-6.19,0.65-8.95,1.97c-2.78,1.32-5.2,3.17-7.26,5.55c-2.06,2.38-3.7,5.27-4.91,8.65
	c-1.21,3.38-1.81,7.09-1.81,11.15c0,3.42,0.41,6.76,1.22,10.03c0.82,3.27,2.14,6.15,3.95,8.65c1.81,2.49,4.19,4.5,7.14,6.03
	c2.95,1.53,6.6,2.29,10.93,2.29c3.42,0,6.43-0.65,9.02-1.97c2.59-1.32,4.39-3.15,5.39-5.49v8.63c0,3.49-1.28,6.25-3.83,8.27
	c-2.57,2.02-5.69,3.05-9.39,3.05c-3.49,0-6.28-0.88-8.38-2.62c-1.17-0.97-2.01-2.15-2.53-3.58c-0.81-2.25-2.81-3.83-5.2-3.83h-2.04
	c-3.76,0-6.37,3.71-5.15,7.26c0.23,0.65,0.48,1.29,0.77,1.9c1.29,2.71,3.05,5,5.28,6.89c2.25,1.88,4.94,3.34,8.06,4.38
	c3.13,1.02,6.5,1.54,10.14,1.54c3.63,0,7.04-0.53,10.24-1.6c3.21-1.08,5.97-2.62,8.33-4.64c2.34-2.04,4.19-4.56,5.55-7.58
	c1.21-2.73,1.89-5.84,2-9.36c0.03-0.37,0.03-0.76,0.03-1.14v-46.52C398.58,219.97,398.36,219.02,397.95,218.19z M381.78,252.6
	c-2.25,2.61-5.07,3.9-8.49,3.9s-6.24-1.38-8.49-4.16c-2.23-2.77-3.35-6.5-3.35-11.2c0-10.67,3.95-16,11.84-16
	c6.07,0,9.79,3.31,11.2,9.92v0.01c0.43,2,0.64,4.31,0.64,6.92c0,2.62-0.39,4.92-1.16,6.89v0.01
	C383.45,250.28,382.71,251.52,381.78,252.6z"/>
<linearGradient id="SVGID_10_" gradientUnits="userSpaceOnUse" x1="400.4887" y1="231.4577" x2="444.8961" y2="231.4577">
	<stop  offset="0" style="stop-color:#E00914"/>
	<stop  offset="1" style="stop-color:#E6381F"/>
</linearGradient>
<path class="st10" d="M444.9,213.77c0,0-3.78,0.3-8.21,6.2c-7.45,9.93-18.98,28.03-18.98,28.03c-4.38,6.39-12.85,2.35-17.22-4.04
	c0,0,1.46-1.77,2.12-2.27c0.02-0.02,0.03-0.03,0.05-0.04c5.76-3.96,13.14-19.09,22.16-26.43c2.14-1.74,5.47-3.03,9.16-3.41
	C437.55,211.44,441.46,211.95,444.9,213.77z"/>
<linearGradient id="SVGID_11_" gradientUnits="userSpaceOnUse" x1="402.5733" y1="252.2007" x2="402.5733" y2="232.346">
	<stop  offset="0" style="stop-color:#EE741C"/>
	<stop  offset="1" style="stop-color:#FCC00D"/>
</linearGradient>
<path class="st11" d="M418,247.54l-0.29,0.45c-0.1,0.15-0.19,0.28-0.29,0.41c-4.4,5.98-11.28,5.83-15.56-0.41
	c0,0-6.26-9.96-11.87-16.68c-2.86-3.41-6.01-3.78-6.01-3.78c6.89-3.44,13.1-5,19.12-0.12c1.1,0.89,3.47,3.94,5.98,7.08
	c0.95,1.2,1.92,2.4,2.86,3.52c3.5,4.19,4.89,4.88,6.42,5.22c1.23,0.28,2.36-0.29,2.81-0.59L418,247.54z"/>
<g>
	<linearGradient id="SVGID_12_" gradientUnits="userSpaceOnUse" x1="346.1181" y1="317.7953" x2="346.1181" y2="301.2081">
		<stop  offset="0" style="stop-color:#E00914"/>
		<stop  offset="1" style="stop-color:#E6381F"/>
	</linearGradient>
	<path class="st12" d="M343.36,317.12v-20.39h-7.87v-3.38c0-0.66,0.53-1.19,1.19-1.19h18.88c0.66,0,1.19,0.53,1.19,1.19v3.38h-7.91
		v20.39c0,0.66-0.53,1.19-1.19,1.19h-3.09C343.89,318.31,343.36,317.77,343.36,317.12z"/>
	<linearGradient id="SVGID_13_" gradientUnits="userSpaceOnUse" x1="361.7276" y1="317.4739" x2="361.7276" y2="303.8132">
		<stop  offset="0" style="stop-color:#E00914"/>
		<stop  offset="1" style="stop-color:#E6381F"/>
	</linearGradient>
	<path class="st13" d="M356.12,317.12v-16.99c0-0.66,0.53-1.19,1.19-1.19h2.42c0.66,0,1.19,0.53,1.19,1.19v1.13
		c0.42-0.66,0.86-1.17,1.32-1.54c0.46-0.37,0.93-0.65,1.42-0.85c0.49-0.2,0.98-0.32,1.48-0.37c0.5-0.05,1.01-0.08,1.54-0.08h0.67
		v3.94c0,0.66-0.54,1.2-1.21,1.18c-0.02,0-0.04,0-0.06,0c-2.66-0.05-4.84,2.12-4.84,4.78v8.79c0,0.66-0.53,1.19-1.19,1.19h-2.74
		C356.65,318.31,356.12,317.77,356.12,317.12z"/>
	<linearGradient id="SVGID_14_" gradientUnits="userSpaceOnUse" x1="376.3741" y1="317.4739" x2="376.3741" y2="303.8132">
		<stop  offset="0" style="stop-color:#E00914"/>
		<stop  offset="1" style="stop-color:#E6381F"/>
	</linearGradient>
	<path class="st14" d="M372.26,309.96c0.08,1.47,0.51,2.64,1.28,3.5c0.77,0.87,1.79,1.3,3.05,1.3c0.84,0,1.58-0.19,2.22-0.57
		c0.45-0.27,0.79-0.61,1.02-1.03c0.19-0.36,0.59-0.56,1-0.56h2.73c0.87,0,1.48,0.92,1.08,1.7c-0.61,1.19-1.43,2.16-2.47,2.91
		c-1.5,1.08-3.28,1.61-5.35,1.61c-6.46,0-9.69-3.52-9.69-10.55c0-1.5,0.21-2.85,0.63-4.05c0.42-1.21,1.03-2.24,1.83-3.11
		c0.8-0.87,1.78-1.53,2.93-1.99c1.15-0.46,2.48-0.69,3.98-0.69c2.99,0,5.25,0.96,6.79,2.87c1.54,1.92,2.3,4.8,2.3,8.66H372.26z
		 M380.33,306.73c-0.03-0.71-0.15-1.33-0.37-1.87c-0.22-0.54-0.52-0.98-0.89-1.34c-0.37-0.35-0.79-0.62-1.26-0.79
		c-0.47-0.17-0.96-0.26-1.46-0.26c-1.02,0-1.91,0.37-2.66,1.12c-0.75,0.75-1.17,1.79-1.28,3.13H380.33z"/>
	<linearGradient id="SVGID_15_" gradientUnits="userSpaceOnUse" x1="396.1565" y1="317.4739" x2="396.1565" y2="303.8132">
		<stop  offset="0" style="stop-color:#E00914"/>
		<stop  offset="1" style="stop-color:#E6381F"/>
	</linearGradient>
	<path class="st15" d="M400.97,318.31c-0.66,0-1.19-0.53-1.19-1.19v-10.54c0-1.5-0.25-2.51-0.75-3.03c-0.5-0.53-1.35-0.79-2.56-0.79
		c-2.65,0-3.98,1.48-3.98,4.45v9.91c0,0.66-0.53,1.19-1.19,1.19h-2.74c-0.66,0-1.19-0.53-1.19-1.19v-18.18h4.88v2.83
		c0.6-1.1,1.4-1.93,2.4-2.5c1-0.56,2.28-0.85,3.86-0.85c0.92,0,1.77,0.14,2.56,0.41c0.79,0.28,1.46,0.69,2.03,1.24
		c0.57,0.55,1.01,1.23,1.34,2.03c0.33,0.8,0.49,1.73,0.49,2.77v12.24c0,0.66-0.53,1.19-1.19,1.19H400.97z"/>
	<linearGradient id="SVGID_16_" gradientUnits="userSpaceOnUse" x1="416.1556" y1="317.4739" x2="416.1556" y2="303.8132">
		<stop  offset="0" style="stop-color:#E00914"/>
		<stop  offset="1" style="stop-color:#E6381F"/>
	</linearGradient>
	<path class="st16" d="M421.77,318.31c-0.65,0-1.18-0.52-1.19-1.17l-0.02-1.19c-1.18,1.92-2.98,2.87-5.39,2.87
		c-1.23,0-2.36-0.24-3.39-0.71c-1.02-0.47-1.9-1.15-2.64-2.05c-0.74-0.89-1.31-1.98-1.73-3.27c-0.42-1.29-0.63-2.74-0.63-4.37
		c0-1.47,0.18-2.81,0.53-4.03c0.35-1.22,0.87-2.28,1.55-3.17c0.68-0.89,1.52-1.58,2.5-2.07c0.98-0.49,2.11-0.73,3.37-0.73
		c2.39,0,4.3,1.01,5.75,3.03v-8.42c0-0.66,0.53-1.19,1.19-1.19h2.66c0.66,0,1.19,0.53,1.19,1.19v24.08c0,0.66-0.53,1.19-1.19,1.19
		H421.77z M416.35,314.64c1.23,0,2.26-0.51,3.09-1.54c0.83-1.02,1.24-2.36,1.24-4.02c0-4.2-1.43-6.3-4.29-6.3
		c-2.94,0-4.41,1.99-4.41,5.98c0,1.73,0.41,3.14,1.22,4.23C414.02,314.1,415.07,314.64,416.35,314.64z"/>
	<linearGradient id="SVGID_17_" gradientUnits="userSpaceOnUse" x1="436.0771" y1="317.4739" x2="436.0771" y2="303.8132">
		<stop  offset="0" style="stop-color:#E00914"/>
		<stop  offset="1" style="stop-color:#E6381F"/>
	</linearGradient>
	<path class="st17" d="M440.36,304.8c-0.51,0-0.95-0.34-1.12-0.82c-0.18-0.52-0.46-0.91-0.83-1.16c-0.55-0.38-1.42-0.57-2.6-0.57
		c-0.97,0-1.72,0.12-2.24,0.37c-0.53,0.25-0.79,0.66-0.79,1.24c0,0.58,0.26,1.02,0.79,1.32c0.52,0.3,1.31,0.6,2.36,0.89
		c1.1,0.31,2.15,0.6,3.15,0.85c1,0.25,1.88,0.52,2.64,0.81c1.02,0.42,1.81,0.99,2.36,1.71c0.55,0.72,0.83,1.71,0.83,2.97
		c0,2.02-0.72,3.6-2.15,4.73c-1.43,1.13-3.54,1.69-6.32,1.69c-2.99,0-5.28-0.63-6.87-1.89c-1.18-0.94-1.94-2.07-2.27-3.4
		c-0.18-0.73,0.42-1.44,1.17-1.44h2.9c0.54,0,0.98,0.37,1.14,0.89c0.16,0.5,0.47,0.92,0.93,1.24c0.71,0.5,1.69,0.75,2.95,0.75
		c0.92,0,1.72-0.15,2.4-0.45c0.68-0.3,1.02-0.82,1.02-1.56c0-0.68-0.31-1.17-0.93-1.46c-0.62-0.29-1.35-0.54-2.18-0.75
		c-1.63-0.39-2.94-0.75-3.94-1.06c-1-0.31-1.84-0.7-2.52-1.14c-0.92-0.58-1.56-1.23-1.91-1.97c-0.35-0.73-0.53-1.54-0.53-2.4
		c0-0.81,0.14-1.57,0.43-2.28c0.29-0.71,0.76-1.32,1.42-1.83c0.66-0.51,1.5-0.91,2.54-1.2c1.04-0.29,2.29-0.43,3.76-0.43
		c2.81,0,4.88,0.54,6.2,1.61c1,0.82,1.67,1.92,1.98,3.33c0.17,0.74-0.42,1.44-1.17,1.44H440.36z"/>
</g>
</svg>
